<svg xmlns="http://www.w3.org/2000/svg" viewBox="0 0 134.61 129.66" role="img" aria-label="Jiska">
<g transform="translate(-11.795880,142.088121) scale(0.100000,-0.100000)"
fill="#4b4ee9" stroke="none">
<path d="M914 1364 c-34 -78 -73 -224 -81 -307 -4 -44 -10 -66 -17 -63 -124
50 -176 69 -233 81 -78 18 -347 31 -418 21 l-47 -8 7 -46 c11 -76 79 -270 128
-367 162 -322 413 -511 722 -546 151 -17 374 10 408 50 16 17 48 121 68 216
21 99 16 316 -9 408 -26 94 -85 223 -140 304 -78 115 -214 238 -330 297 l-33
17 -25 -57z m85 -495 c102 -86 193 -205 261 -344 54 -108 129 -329 117 -341
-9 -9 -118 45 -193 97 -120 83 -216 193 -274 313 -58 121 -80 206 -80 310 l0
77 50 -27 c28 -15 81 -53 119 -85z"/>
</g>
</svg>
